<svg width="21" height="21" viewBox="0 0 21 21" fill="none" xmlns="http://www.w3.org/2000/svg">
<g id="Social Media Icon/Instagram">
<path id="Instagram" fill-rule="evenodd" clip-rule="evenodd" d="M1.81836 10.5132C1.81836 6.91804 1.81836 5.12047 2.67505 3.82574C3.05761 3.24757 3.55275 2.75243 4.13091 2.36988C5.42565 1.51318 7.22322 1.51318 10.8184 1.51318C14.4135 1.51318 16.2111 1.51318 17.5058 2.36988C18.084 2.75243 18.5791 3.24757 18.9617 3.82574C19.8184 5.12047 19.8184 6.91804 19.8184 10.5132C19.8184 14.1083 19.8184 15.9059 18.9617 17.2006C18.5791 17.7788 18.084 18.2739 17.5058 18.6565C16.2111 19.5132 14.4135 19.5132 10.8184 19.5132C7.22322 19.5132 5.42565 19.5132 4.13091 18.6565C3.55275 18.2739 3.05761 17.7788 2.67505 17.2006C1.81836 15.9059 1.81836 14.1083 1.81836 10.5132ZM15.478 10.5135C15.478 13.0868 13.3919 15.1729 10.8186 15.1729C8.24524 15.1729 6.15915 13.0868 6.15915 10.5135C6.15915 7.94015 8.24524 5.85406 10.8186 5.85406C13.3919 5.85406 15.478 7.94015 15.478 10.5135ZM10.8186 13.5965C12.5213 13.5965 13.9016 12.2162 13.9016 10.5135C13.9016 8.81078 12.5213 7.43047 10.8186 7.43047C9.11587 7.43047 7.73556 8.81078 7.73556 10.5135C7.73556 12.2162 9.11587 13.5965 10.8186 13.5965ZM15.662 6.71479C16.2667 6.71479 16.7568 6.22462 16.7568 5.61997C16.7568 5.01532 16.2667 4.52515 15.662 4.52515C15.0573 4.52515 14.5672 5.01532 14.5672 5.61997C14.5672 6.22462 15.0573 6.71479 15.662 6.71479Z" fill="#0078D4"/>
</g>
</svg>
