<svg width="19" height="19" viewBox="0 0 19 19" fill="none" xmlns="http://www.w3.org/2000/svg">
<path id="Vector" d="M4.75944 7.77366C4.5678 8.33346 4.4711 8.92138 4.47216 9.51318C4.47216 10.1732 4.59066 10.8061 4.81043 11.3905C5.84739 14.1582 8.93154 15.5602 11.6992 14.5229C11.9848 14.4156 12.2601 14.2848 12.5227 14.1308H12.5234C13.5843 13.5095 14.398 12.5425 14.8316 11.3919H10.0188V7.83168H18.6636C18.8869 9.00929 18.8736 10.2196 18.6242 11.3923C18.1917 13.4191 17.0721 15.2339 15.4557 16.5314C13.8596 17.8173 11.8705 18.516 9.82117 18.5132C4.85157 18.516 0.821173 14.4895 0.81836 9.52021C0.817657 8.07712 1.16366 6.65512 1.82719 5.37343C3.37437 2.38703 6.45747 0.511427 9.82117 0.513185C12.0044 0.513185 14.0073 1.29099 15.5658 2.58464L12.6504 4.97187C10.1401 3.40922 6.83898 4.17823 5.27634 6.68747C5.0636 7.02926 4.89025 7.39425 4.75944 7.77366Z" fill="#0078D4"/>
</svg>
